<svg height="511pt" viewBox="0 -102 511.9996 511" width="511pt" xmlns="http://www.w3.org/2000/svg"><path d="m217.601562.964844c38.589844-1.320313 78.769532.035156 116.9375 5.820312 17.988282 2.726563 36.027344 6.207032 53.085938 12.683594 8.714844 3.304688 17.148438 7.375 25.003906 12.410156 36.242188 23.238282 71.152344 60.398438 86.183594 101.410156 13.4375 36.671876 21.808594 90.203126-1.273438 124.59375-16.359374 24.371094-46.015624 28.753907-72.832031 32.75-12.621093 1.882813-25.355469 2.886719-38.03125 4.34375-24.628906 2.828126-116.152343 8.160157-137.089843 10.394532-12.285157 1.308594-28.273438 2.789062-34.800782-10.484375-10.214844-20.777344-6.316406-52.753907-11.449218-75.480469-4.453126-19.695312-11.722657-38.625-19.039063-57.445312-11.128906-28.628907-22.453125-57.179688-33.914063-85.675782-4.917968-12.230468-8.523437-26.378906-17.324218-36.148437-5.113282-5.679688-16.792969-16.734375-6.238282-24.160157 1.476563-1.035156 3.242188-1.558593 4.972657-2.066406 16.28125-4.769531 32.964843-8.066406 49.796875-10.164062 11.964844-1.492188 23.972656-2.371094 36.011718-2.78125zm0 0" fill="#d33737"/><path d="m497.539062 257.886719c-16.363281 24.363281-46.011718 28.75-72.835937 32.746093-5.632813.84375-11.273437 1.511719-16.9375 2.109376 18.546875-4.550782 35.855469-12.335938 47.152344-29.171876 24.332031-36.257812 15.507812-92.710937 1.339843-131.378906-15.851562-43.238281-52.652343-82.421875-90.878906-106.929687-8.277344-5.300781-17.175781-9.59375-26.359375-13.078125-9.464843-3.59375-19.214843-6.3125-29.09375-8.492188 8.269531.832032 16.488281 1.863282 24.613281 3.097656 17.988282 2.71875 36.03125 6.199219 53.082032 12.675782 8.714844 3.308594 17.15625 7.375 25.003906 12.410156 36.246094 23.242188 71.15625 60.40625 86.1875 101.410156 13.441406 36.679688 21.8125 90.207032-1.273438 124.601563zm0 0" fill="#c42626"/><path d="m73.804688 44.058594c-19.515626 20.421875-32.789063 45.917968-44.773438 71.5-16.0625 34.28125-43.84375 106.125-19.339844 141.804687 12.246094 17.828125 35.464844 25.480469 54.828125 32.390625 12.851563 4.585938 26.074219 8.066406 39.527344 10.359375 42.730469 7.28125 95.003906 11.5 137.910156 5.011719 22.15625-3.351562 53.722657-10.863281 66.835938-30.558594 28.269531-42.457031 7.789062-110.746094-12.171875-151.785156-14.351563-29.503906-33.246094-57.320312-58.664063-78.0625-49.015625-39.992188-118.199219-48.742188-164.152343-.660156zm0 0" fill="#ffc1b8"/><path d="m308.789062 274.5625c-13.113281 19.703125-44.671874 27.214844-66.835937 30.5625-21.082031 3.1875-44.417969 3.792969-67.765625 2.710938 9.507812-.488282 18.785156-1.371094 27.660156-2.710938 22.152344-3.347656 53.71875-10.859375 66.832032-30.5625 28.265624-42.445312 7.785156-110.746094-12.175782-151.78125-14.351562-29.5-33.242187-57.324219-58.65625-78.066406-20.097656-16.382813-43.570312-27.535156-67.449218-31.667969 36.523437-6.734375 76.175781 6.066406 107.554687 31.667969 25.429687 20.742187 44.320313 48.566406 58.667969 78.066406 19.960937 41.035156 40.441406 109.335938 12.167968 151.78125zm0 0" fill="#ffb3a8"/><path d="m239.164062 126.351562c1.011719-17.496093-5.667968-36.171874-17.378906-48.84375-12.15625-13.15625-28.28125-22.503906-44.867187-28.917968-27.761719-10.738282-66.667969-12.25-77.492188 22.046875-1.628906 5.164062-2.070312 10.894531-.050781 15.917969 3.464844 8.605468 12.945312 12.929687 21.722656 15.929687 9.597656 3.28125 19.398438 5.972656 29.328125 8.050781 6.652344 1.394532 13.464844 2.546875 19.5625 5.546875 16.464844 8.105469 21.355469 30.054688 36.964844 37.570313 18.351563 8.835937 30.503906-8.46875 32.058594-25.277344.0625-.675781.113281-1.347656.152343-2.023438zm0 0" fill="#e57670"/><path d="m239.164062 126.355469c-.042968.667969-.09375 1.347656-.15625 2.019531-.9375 10.109375-5.703124 20.40625-13.355468 25.070312.96875-2.941406 1.605468-6.042968 1.894531-9.121093.0625-.671875.113281-1.351563.15625-2.019531 1.007813-17.503907-5.675781-36.175782-17.382813-48.851563-12.160156-13.148437-28.289062-22.5-44.867187-28.914063-20.863281-8.074218-48.015625-10.9375-64.8125 2.707032 12.253906-30.789063 49.460937-29.027344 76.273437-18.65625 16.589844 6.414062 32.714844 15.761718 44.867188 28.914062 11.71875 12.675782 18.390625 31.355469 17.382812 48.851563zm0 0" fill="#e05c56"/><path d="m47.882812 171.757812c-4.976562-15.980468-3.125-36.207031 6.394532-46.9375 9.074218-10.226562 26.703125-8.511718 37.707031-3.238281 7.746094 3.714844 15.179687 8.65625 23.699219 9.785157 16.105468 2.136718 24.464844-1.628907 35.4375 11.964843 30.714844 38.054688-14.597656 57.3125-46.714844 60.867188-9.4375 1.046875-19.203125.898437-28.148438-2.28125-12.429687-4.417969-24.460937-17.597657-28.375-30.160157zm0 0" fill="#e57670"/><path d="m142.398438 192.867188c4.242187-8.90625 2.902343-20.027344-7.984376-33.519532-10.964843-13.59375-19.324218-9.824218-35.433593-11.953125-8.515625-1.132812-15.949219-6.078125-23.703125-9.792969-7.433594-3.566406-17.898438-5.5-26.691406-3.222656 1.429687-3.636718 3.324218-6.890625 5.695312-9.558594 9.070312-10.222656 26.699219-8.515624 37.699219-3.230468 7.753906 3.707031 15.1875 8.648437 23.703125 9.78125 16.105468 2.132812 24.46875-1.628906 35.433594 11.964844 18.847656 23.34375 9.074218 39.613281-8.71875 49.53125zm0 0" fill="#e05c56"/><path d="m237.15625 200.75c-8.226562 15.402344-24.230469 26.085938-23.914062 44.917969.082031 5.070312.511718 10.253906 2.542968 14.902343 4.582032 10.480469 16.882813 16.175782 28.285156 15.328126 11.40625-.847657 21.804688-7.1875 29.992188-15.171876 4.121094-4.015624 7.855469-8.570312 10.035156-13.898437 5.832032-14.265625 1.929688-29.152344.488282-43.53125-1.382813-13.753906-2.878907-25.238281-12.871094-35.941406-7.128906-7.640625-18.503906-4.582031-24.8125 2.828125-6.976563 8.207031-4.128906 18.648437-8.5625 28.203125-.375.800781-.769532 1.589843-1.183594 2.363281zm0 0" fill="#e57670"/><path d="m284.089844 246.824219c-2.171875 5.324219-5.910156 9.886719-10.027344 13.902343-8.1875 7.984376-18.589844 14.324219-29.988281 15.167969-3.695313.28125-7.484375-.132812-11.070313-1.171875 8.714844-2.328125 16.632813-7.640625 23.148438-13.996094 4.121094-4.015624 7.847656-8.578124 10.03125-13.902343 5.839844-14.261719 1.9375-29.148438.484375-43.527344-1.378907-13.757813-2.871094-25.238281-12.863281-35.949219-.554688-.585937-1.132813-1.121094-1.730469-1.585937 6.253906-3.839844 14.191406-4.25 19.640625 1.585937 9.988281 10.710938 11.488281 22.191406 12.871094 35.949219 1.441406 14.378906 5.34375 29.265625-.496094 43.527344zm0 0" fill="#e05c56"/><path d="m121.710938 236.394531c-19.671876 2.136719-39.527344-1.796875-58.207032-7.773437-5.820312-1.859375-11.753906-3.949219-17.917968-3.730469-6.164063.21875-12.714844 3.417969-14.523438 8.957031-2.875 8.816406 6.988281 16.332032 15.738281 20.429688 35.78125 16.769531 75.988281 25.265625 116.125 24.546875 3.792969-.066407 7.730469-.253907 11.101563-1.90625 6.804687-3.335938 9.09375-11.484375 9.007812-18.660157-.089844-7.171874-1.800781-14.457031.019532-21.441406 2.429687-9.339844 13.972656-18.652344 12.054687-28.714844-2.335937-12.269531-12.3125-10.289062-19.085937-3.53125-16.585938 16.558594-28.386719 29.003907-54.3125 31.824219zm0 0" fill="#e57670"/><path d="m191.617188 221.226562c-4.148438-3.667968-10.707032-1.265624-15.589844 3.605469-16.585938 16.554688-28.386719 28.996094-54.316406 31.816407-19.667969 2.144531-39.523438-1.792969-58.203126-7.761719-5.828124-1.867188-11.761718-3.957031-17.917968-3.738281-3.152344.113281-6.40625.996093-9.070313 2.582031-4.378906-3.871094-7.167969-8.648438-5.460937-13.878907 1.8125-5.539062 8.363281-8.742187 14.53125-8.960937 6.15625-.226563 12.089844 1.867187 17.917968 3.730469 18.679688 5.972656 38.53125 9.914062 58.203126 7.773437 25.929687-2.820312 37.730468-15.261719 54.316406-31.820312 6.769531-6.761719 16.746094-8.742188 19.082031 3.523437.855469 4.507813-.976563 8.855469-3.492187 13.128906zm0 0" fill="#e05c56"/></svg>