<?xml version="1.0" encoding="iso-8859-1"?>
<!-- Generator: Adobe Illustrator 19.0.0, SVG Export Plug-In . SVG Version: 6.00 Build 0)  -->
<svg version="1.1" id="Layer_1" xmlns="http://www.w3.org/2000/svg" xmlns:xlink="http://www.w3.org/1999/xlink" x="0px" y="0px"
	 viewBox="0 0 512.001 512.001" style="enable-background:new 0 0 512.001 512.001;" xml:space="preserve">
<path style="fill:#C13421;" d="M482.392,241.557h-32.924v-46.273H65.297v46.273H29.613C13.284,241.557,0,254.963,0,271.44
	s13.284,29.883,29.613,29.883h35.684v75.36c0,42.286,34.305,76.882,76.237,76.882h231.693c41.935,0,76.242-34.597,76.242-76.882
	v-75.36h32.924c16.326,0,29.608-13.406,29.608-29.884C512,254.963,498.718,241.557,482.392,241.557z M29.613,283.415
	c-6.561,0-11.9-5.372-11.9-11.974s5.338-11.973,11.9-11.973h35.684v23.947H29.613z M482.392,283.415h-32.924v-23.947h32.924
	c6.559,0,11.895,5.372,11.895,11.974C494.287,278.043,488.951,283.415,482.392,283.415z"/>
<path style="fill:#FF4328;" d="M368.083,207.31v131.523c0,37.092-29.738,67.161-66.423,67.161h-88.564
	c-36.685,0-66.423-30.069-66.423-67.161V207.31H368.083z"/>
<path style="fill:#97BAA8;" d="M449.469,195.39c0,26.092-86,47.243-192.086,47.243S65.297,221.48,65.297,195.39
	s85.999-47.243,192.086-47.243S449.469,169.298,449.469,195.39z"/>
<path style="fill:#981700;" d="M449.465,195.39c0,5.988-4.542,11.716-12.806,16.988c-27.745-17.696-97.544-30.253-179.276-30.253
	c-81.736,0-151.539,12.557-179.28,30.255c-8.267-5.272-12.81-11.001-12.81-16.991c0-26.092,86-47.243,192.086-47.243
	S449.465,169.298,449.465,195.39z"/>
<path style="fill:#FFBB5E;" d="M237.53,109.881c13.739,20.668,16.725,57.55-0.957,77.431c-1.749,1.966-4.164,2.967-6.588,2.967
	c-2.11,0-4.226-0.758-5.919-2.296c-3.637-3.307-3.935-8.969-0.663-12.646c10.483-11.787,10.2-39.259-0.571-55.463
	c-9.86-14.825-13.997-36.094-10.535-54.183c0.929-4.855,5.569-8.032,10.378-7.09c4.802,0.939,7.942,5.638,7.012,10.493
	C227.109,82.561,230.262,98.952,237.53,109.881z M292.336,109.882c-7.271-10.937-10.424-27.329-7.846-40.787
	c0.931-4.855-2.208-9.553-7.011-10.494c-4.802-0.941-9.449,2.234-10.379,7.089c-3.464,18.08,0.672,39.348,10.534,54.184
	c10.771,16.204,11.054,43.677,0.571,55.466c-3.27,3.678-2.973,9.34,0.664,12.646c1.693,1.538,3.809,2.296,5.918,2.296
	c2.424,0,4.841-1.001,6.589-2.967C309.059,167.431,306.074,130.548,292.336,109.882z"/>
<g>
</g>
<g>
</g>
<g>
</g>
<g>
</g>
<g>
</g>
<g>
</g>
<g>
</g>
<g>
</g>
<g>
</g>
<g>
</g>
<g>
</g>
<g>
</g>
<g>
</g>
<g>
</g>
<g>
</g>
</svg>
