<?xml version="1.0" encoding="iso-8859-1"?>
<!-- Generator: Adobe Illustrator 19.0.0, SVG Export Plug-In . SVG Version: 6.00 Build 0)  -->
<svg version="1.1" id="Layer_1" xmlns="http://www.w3.org/2000/svg" xmlns:xlink="http://www.w3.org/1999/xlink" x="0px" y="0px"
	 viewBox="0 0 512 512" style="enable-background:new 0 0 512 512;" xml:space="preserve">
<path style="fill:#939B48;" d="M83.327,201.075c-1.35,0.811-2.856,1.326-4.419,1.509c-2.156,0.255-4.316,0.38-6.467,0.38
	c-28.248,0-55.442-21.502-66.308-53.382C-5.563,115.28,5.047,78.911,31.361,63.106c1.35-0.811,2.857-1.326,4.421-1.51
	c30.463-3.594,61.08,18.699,72.775,53.003C120.25,148.902,109.639,185.271,83.327,201.075z"/>
<path style="fill:#60682E;" d="M117.467,310.86c-1.19,0.406-2.401,0.6-3.592,0.6c-4.626,0-8.946-2.913-10.523-7.539L46.441,134.566
	c-1.982-5.818,1.121-12.143,6.932-14.129c5.815-1.982,12.131,1.122,14.115,6.94l56.912,169.354
	C126.383,302.549,123.28,308.875,117.467,310.86z"/>
<path style="fill:#F5D470;" d="M501.181,352.407c0,15.378-2.858,30.086-8.06,43.629H22.531c-5.201-13.544-8.06-28.251-8.06-43.629
	c0-67.171,54.394-121.623,121.496-121.623c3.551,0,7.062,0.161,10.536,0.461c-7.307-15.634-11.396-33.075-11.396-51.476
	c0-67.171,54.394-121.623,121.496-121.623s121.496,54.452,121.496,121.623c0,18.497-4.132,36.024-11.511,51.721
	c4.302-0.462,8.669-0.705,13.095-0.705C446.787,230.785,501.181,285.237,501.181,352.407z"/>
<path style="fill:#E9B84C;" d="M455.891,352.407c0,15.83-4.818,30.533-13.065,42.723H316.543
	c-8.247-12.189-13.065-26.892-13.065-42.723c0-42.132,34.118-76.286,76.207-76.286S455.891,310.276,455.891,352.407z
	 M135.968,276.121c-42.089,0-76.208,34.155-76.208,76.286c0,15.83,4.818,30.533,13.065,42.723H199.11
	c8.247-12.189,13.065-26.892,13.065-42.723C212.176,310.276,178.057,276.121,135.968,276.121z M332.811,179.769
	c0-42.132-34.118-76.287-76.207-76.287s-76.207,34.155-76.207,76.287s34.118,76.286,76.207,76.286S332.811,221.9,332.811,179.769z"
	/>
<path style="fill:#D19B3F;" d="M166.013,352.407c0,16.61-13.451,30.076-30.043,30.076c-16.593,0-30.044-13.464-30.044-30.076
	c0-16.611,13.451-30.076,30.044-30.076C152.562,322.332,166.013,335.797,166.013,352.407z M379.685,322.332
	c-16.593,0-30.044,13.466-30.044,30.076s13.451,30.076,30.044,30.076c16.593,0,30.043-13.464,30.043-30.076
	C409.728,335.797,396.278,322.332,379.685,322.332z M256.604,149.694c-16.593,0-30.044,13.466-30.044,30.076
	s13.451,30.076,30.044,30.076s30.044-13.466,30.044-30.076C286.648,163.159,273.198,149.694,256.604,149.694z"/>
<path style="fill:#98642E;" d="M135.968,311.502c-22.531,0-40.862,18.35-40.862,40.905s18.331,40.904,40.862,40.904
	c22.532,0,40.863-18.35,40.863-40.904S158.5,311.502,135.968,311.502z M135.968,371.652c-10.601,0-19.226-8.634-19.226-19.246
	s8.625-19.246,19.226-19.246s19.226,8.634,19.226,19.246C155.194,363.019,146.569,371.652,135.968,371.652z M379.685,311.502
	c-22.532,0-40.863,18.35-40.863,40.905s18.331,40.904,40.863,40.904c22.531,0,40.862-18.35,40.862-40.904
	S402.216,311.502,379.685,311.502z M379.685,371.652c-10.601,0-19.226-8.634-19.226-19.246s8.625-19.246,19.226-19.246
	c10.601,0,19.226,8.634,19.226,19.246C398.91,363.019,390.285,371.652,379.685,371.652z M256.934,92.323
	c-48.168,0-87.355,39.228-87.355,87.446s39.187,87.446,87.355,87.446s87.356-39.228,87.356-87.446S305.102,92.323,256.934,92.323z
	 M256.934,245.556c-36.237,0-65.719-29.511-65.719-65.786s29.481-65.786,65.719-65.786c36.237,0,65.719,29.512,65.719,65.786
	C322.652,216.045,293.171,245.556,256.934,245.556z M256.934,138.533c-22.714,0-41.192,18.499-41.192,41.235
	c0,22.737,18.479,41.235,41.192,41.235c22.714,0,41.194-18.498,41.194-41.235C298.126,157.032,279.648,138.533,256.934,138.533z
	 M256.934,199.344c-10.782,0-19.555-8.782-19.555-19.575c0-10.793,8.773-19.576,19.555-19.576c10.783,0,19.556,8.782,19.556,19.576
	C276.49,190.564,267.717,199.344,256.934,199.344z M512,352.407c0,15.28-2.607,29.961-7.384,43.629h-23.203
	c5.756-13.397,8.95-28.146,8.95-43.629c0-61.092-49.65-110.793-110.678-110.793c-1.969,0-3.922,0.068-5.866,0.17
	c-5.248,9.872-11.701,19.006-19.172,27.198c7.935-2.391,16.336-3.692,25.039-3.692c47.986,0,87.025,39.08,87.025,87.116
	c0,15.891-4.293,30.789-11.749,43.629h-26.586c10.372-11.589,16.696-26.881,16.696-43.629c0-36.093-29.333-65.457-65.388-65.457
	c-36.056,0-65.388,29.363-65.388,65.457c0,16.748,6.323,32.04,16.696,43.629h-26.584c-7.456-12.84-11.749-27.738-11.749-43.629
	c0-19.014,6.134-36.611,16.502-50.951c-10.083,4.353-20.807,7.491-31.993,9.217c-5.257,12.887-8.162,26.976-8.162,41.734
	c0,15.484,3.194,30.232,8.95,43.629h-17.057h-6.145h-17.057c5.756-13.397,8.95-28.146,8.95-43.629
	c0-14.655-2.866-28.65-8.053-41.465c-10.935-1.525-21.441-4.399-31.356-8.436c9.914,14.145,15.755,31.348,15.755,49.901
	c0,15.891-4.293,30.789-11.749,43.629h-26.584c10.372-11.589,16.696-26.881,16.696-43.629c0-36.093-29.333-65.457-65.389-65.457
	s-65.388,29.363-65.388,65.457c0,16.748,6.323,32.04,16.696,43.629H60.692c-7.455-12.84-11.749-27.738-11.749-43.629
	c0-48.036,39.04-87.116,87.026-87.116c7.841,0,15.436,1.061,22.668,3.016c-7.24-8.046-13.521-16.975-18.637-26.616
	c-1.338-0.048-2.681-0.077-4.031-0.077c-61.028,0-110.678,49.702-110.678,110.793c0,15.484,3.194,30.232,8.95,43.629H11.037
	c-4.777-13.669-7.384-28.349-7.384-43.629c0-71.331,56.621-129.661,127.233-132.345c-4.065-12.712-6.268-26.249-6.268-40.293
	c0-73.035,59.356-132.452,132.315-132.452c33.603,0,65.638,12.626,90.208,35.553c4.37,4.078,4.61,10.931,0.536,15.305
	c-4.075,4.374-10.92,4.615-15.291,0.538c-20.549-19.176-47.346-29.736-75.453-29.736c-61.028,0-110.678,49.702-110.678,110.792
	c0,61.092,49.65,110.792,110.678,110.792s110.679-49.701,110.679-110.792V159.61c0-17.087,13.886-30.988,30.956-30.988h62.123
	c5.139,0,9.318-4.186,9.318-9.331c0-5.144-4.181-9.328-9.318-9.328h-57.784c-17.07,0-30.957-13.902-30.957-30.988
	s13.887-30.988,30.957-30.988h22.144c5.139,0,9.318-4.185,9.318-9.33c0-5.981,4.844-10.83,10.819-10.83s10.819,4.848,10.819,10.83
	c0,17.087-13.886,30.989-30.956,30.989h-22.144c-5.139,0-9.319,4.185-9.319,9.33c0,5.144,4.181,9.328,9.319,9.328h57.784
	c17.07,0,30.956,13.902,30.956,30.988c0,17.089-13.886,30.99-30.956,30.99h-62.123c-5.138,0-9.318,4.185-9.318,9.328v20.159
	c0,14.02-2.195,27.536-6.246,40.229C454.434,221.767,512,280.483,512,352.407z"/>
<path style="fill:#5A482F;" d="M511.468,395.13c0,6.147-4.833,11.13-10.795,11.13h-90.341l-43.833,72.544
	c-2.015,3.334-5.622,5.369-9.514,5.369h-202.5c-3.891,0-7.5-2.037-9.514-5.369l-43.833-72.544H10.795
	C4.833,406.26,0,401.277,0,395.13c0-6.147,4.833-11.13,10.795-11.13h489.877C506.635,383.999,511.468,388.983,511.468,395.13z"/>
<path style="fill:#7D684D;" d="M410.331,406.26l-43.833,72.544c-2.015,3.334-5.622,5.369-9.514,5.369h-202.5
	c-3.891,0-7.5-2.037-9.514-5.369l-43.833-72.544H410.331z"/>
<g>
</g>
<g>
</g>
<g>
</g>
<g>
</g>
<g>
</g>
<g>
</g>
<g>
</g>
<g>
</g>
<g>
</g>
<g>
</g>
<g>
</g>
<g>
</g>
<g>
</g>
<g>
</g>
<g>
</g>
</svg>
