<?xml version="1.0" encoding="UTF-8" standalone="no"?>
<svg
   xmlns:dc="http://purl.org/dc/elements/1.1/"
   xmlns:cc="http://creativecommons.org/ns#"
   xmlns:rdf="http://www.w3.org/1999/02/22-rdf-syntax-ns#"
   xmlns:svg="http://www.w3.org/2000/svg"
   xmlns="http://www.w3.org/2000/svg"
   xmlns:sodipodi="http://sodipodi.sourceforge.net/DTD/sodipodi-0.dtd"
   xmlns:inkscape="http://www.inkscape.org/namespaces/inkscape"
   id="Layer_1"
   enable-background="new 0 0 512 512"
   height="512"
   viewBox="0 0 512 512"
   width="512"
   version="1.1"
   sodipodi:docname="postres.svg"
   inkscape:version="0.92.4 (5da689c313, 2019-01-14)"
   inkscape:export-filename="/home/vokimon/Documentos/recetario/images/postres.png"
   inkscape:export-xdpi="193"
   inkscape:export-ydpi="193">
  <metadata
     id="metadata70">
    <rdf:RDF>
      <cc:Work
         rdf:about="">
        <dc:format>image/svg+xml</dc:format>
        <dc:type
           rdf:resource="http://purl.org/dc/dcmitype/StillImage" />
      </cc:Work>
    </rdf:RDF>
  </metadata>
  <defs
     id="defs68" />
  <sodipodi:namedview
     pagecolor="#ffffff"
     bordercolor="#666666"
     borderopacity="1"
     objecttolerance="10"
     gridtolerance="10"
     guidetolerance="10"
     inkscape:pageopacity="0"
     inkscape:pageshadow="2"
     inkscape:window-width="1920"
     inkscape:window-height="1015"
     id="namedview66"
     showgrid="false"
     inkscape:zoom="1.6054688"
     inkscape:cx="256"
     inkscape:cy="256"
     inkscape:window-x="0"
     inkscape:window-y="0"
     inkscape:window-maximized="1"
     inkscape:current-layer="Layer_1" />
  <linearGradient
     id="SVGID_1_"
     gradientUnits="userSpaceOnUse"
     x1="236.443"
     x2="285.647"
     y1="93.332"
     y2="50.17">
    <stop
       offset="0"
       stop-color="#f46262"
       id="stop2" />
    <stop
       offset="1"
       stop-color="#ff737d"
       id="stop4" />
  </linearGradient>
  <linearGradient
     id="SVGID_2_"
     gradientUnits="userSpaceOnUse"
     x1="75.521"
     x2="288.789"
     y1="298.461"
     y2="296.143">
    <stop
       offset="0"
       stop-color="#ffdb43"
       id="stop7" />
    <stop
       offset="1"
       stop-color="#ffefae"
       id="stop9" />
  </linearGradient>
  <linearGradient
     id="SVGID_3_"
     gradientUnits="userSpaceOnUse"
     x1="43.521"
     x2="468.48"
     y1="200.097"
     y2="200.097">
    <stop
       offset="0"
       stop-color="#b24e2f"
       id="stop12" />
    <stop
       offset="1"
       stop-color="#dd6642"
       id="stop14" />
  </linearGradient>
  <linearGradient
     id="SVGID_4_"
     gradientUnits="userSpaceOnUse"
     x1="29.79"
     x2="482.21"
     y1="461.218"
     y2="461.218">
    <stop
       offset="0"
       stop-color="#3ccbde"
       id="stop17" />
    <stop
       offset="1"
       stop-color="#81d9e7"
       id="stop19" />
  </linearGradient>
  <linearGradient
     id="SVGID_5_"
     gradientUnits="userSpaceOnUse"
     x1="5.301"
     x2="151.344"
     y1="411.801"
     y2="410.641">
    <stop
       offset="0"
       stop-color="#81d9e7"
       id="stop22" />
    <stop
       offset="1"
       stop-color="#b5e9f1"
       id="stop24" />
  </linearGradient>
  <circle
     cx="267.12"
     cy="66.422"
     fill="url(#SVGID_1_)"
     r="44.901"
     id="circle27" />
  <path
     d="m426.893 190.712h-341.786l-38.199 211.159h418.184z"
     fill="url(#SVGID_2_)"
     id="path29" />
  <path
     d="m319.643 293.337c-4.056.992-8.295 1.518-12.657 1.518-13.442 0-25.714-4.996-35.066-13.231-8.888-7.827-22.952-7.827-31.84 0-9.352 8.235-21.624 13.231-35.066 13.231-13.443 0-25.714-4.996-35.066-13.231-8.888-7.826-22.952-7.826-31.84 0-9.352 8.235-21.624 13.231-35.066 13.231-14.947 0-26.515-2.926-35.315-8.065l-6.539 36.145c9.326 6.715 22.871 10.461 41.854 10.461 13.443 0 25.714-4.996 35.066-13.231 8.888-7.827 22.952-7.827 31.84 0 9.352 8.235 21.624 13.231 35.066 13.231s25.714-4.996 35.066-13.231c8.888-7.827 22.952-7.827 31.84 0 9.352 8.235 21.624 13.231 35.066 13.231 9.485 0 18.387-2.487 26.092-6.845 5.603-3.169 8.974-9.201 8.974-15.637 0-11.743-11.002-20.367-22.409-17.577z"
     fill="#ffc715"
     id="path31" />
  <path
     d="m374.5 97.252h-237c-30.592 0-58.192 18.464-69.75 46.789-24.768 60.697-51.44 158.902 35.291 158.902 13.443 0 25.714-4.996 35.066-13.231 8.669-7.634 23.171-7.634 31.84 0 9.352 8.235 21.624 13.231 35.066 13.231s25.714-4.996 35.066-13.231c8.669-7.634 23.171-7.634 31.84 0 9.352 8.235 21.624 13.231 35.066 13.231s25.714-4.996 35.066-13.231c8.669-7.634 23.171-7.634 31.84 0 9.352 8.235 21.624 13.231 35.066 13.231 86.731 0 60.059-98.205 35.291-158.902-11.556-28.325-39.156-46.789-69.748-46.789z"
     fill="url(#SVGID_3_)"
     id="path33" />
  <path
     d="m399.169 156.729c-4.511-7.07-11.884-11.842-20.227-13.091-5.462-.818-9.226-5.909-8.408-11.371.817-5.461 5.906-9.224 11.371-8.408 14.064 2.107 26.502 10.166 34.124 22.113 2.971 4.656 1.788 11.148-3.051 13.809-6.579 3.618-11.901-.063-13.809-3.052z"
     fill="#f8cfc5"
     id="path35" />
  <path
     d="m413.658 194.907c-.553-1.808-1.136-3.654-1.75-5.541-1.71-5.251 1.162-10.895 6.413-12.605 5.252-1.711 10.894 1.162 12.604 6.413.652 2.004 1.272 3.965 1.858 5.885 1.615 5.282-1.277 11.165-6.639 12.487-7.005 1.727-11.169-2.332-12.486-6.639z"
     fill="#f8cfc5"
     id="path37" />
  <path
     d="m29.79 417.847 16.5 56.446c5.248 17.955 21.713 30.296 40.419 30.296h338.583c18.707 0 35.171-12.341 40.419-30.296l16.5-56.446z"
     fill="url(#SVGID_4_)"
     id="path39" />
  <path
     d="m481.859 439.952h-451.718c-16.646 0-30.141-13.495-30.141-30.141 0-16.647 13.495-30.141 30.141-30.141h451.717c16.647 0 30.141 13.495 30.141 30.141.001 16.646-13.494 30.141-30.14 30.141z"
     fill="url(#SVGID_5_)"
     id="path41" />
  <path
     d="m271.877 56.817c-4.134-.27-7.08-4.171-6.62-8.288.126-1.13 3.362-27.81 26.486-40.225 3.648-1.959 8.196-.59 10.156 3.06 1.96 3.649.589 8.196-3.06 10.156-16.266 8.733-18.653 28.479-18.675 28.677-.428 3.834-2.96 6.968-8.287 6.62z"
     fill="#383842"
     id="path43" />
  <path
     d="m36.251 439.952h192.541c9.393 0 16.637 8.273 15.397 17.584-1.036 7.782-7.714 13.565-15.565 13.481-41.993-.445-110.306-.26-182.335 3.276z"
     fill="#00bfd7"
     id="path45" />
  <path
     d="m475.749 439.952h-122.389c-9.393 0-16.637 8.273-15.397 17.584 1.036 7.782 7.714 13.565 15.565 13.481 28.107-.298 67.272 2.193 112.183 3.276z"
     fill="#00bfd7"
     id="path47" />
</svg>
