<svg id="Capa_1" enable-background="new 0 0 488.029 488.029" height="512" viewBox="0 0 488.029 488.029" width="512" xmlns="http://www.w3.org/2000/svg"><path d="m458.156 101.446c-6.352-15.514-21.272-43.003-47.726-44.774-.593-.04-1.062-.515-1.073-1.109s.439-1.087 1.03-1.15c26.367-2.785 40.221-30.825 45.974-46.572 1.637-4.482-2.531-8.921-7.117-7.606l-117.411 34.041 4.198 47.314 115.304 27.729c4.634 1.138 8.629-3.458 6.821-7.873z" fill="#c0694e"/><path d="m35.023 53.69c34.738-27.531 144.687-90.808 344.78.155 3.444 1.565 3.546 6.429.169 8.134-40.596 20.491-223.431 103.981-344.817 12.82-7.61-5.715-7.614-15.179-.132-21.109z" fill="#d29380"/><path d="m379.975 61.98c-40.6 20.49-223.43 103.98-344.82 12.82-7.61-5.72-7.61-15.18-.13-21.11 3.42-2.71 7.58-5.77 12.48-9 98.4 62.66 230.52 22.45 297.63-5.45 11.24 4.35 22.8 9.2 34.67 14.6 3.44 1.57 3.54 6.43.17 8.14z" fill="#c97e67"/><ellipse cx="93.06" cy="58.567" fill="#954c35" rx="12.844" ry="12.844" transform="matrix(1 -.019 .019 1 -1.106 1.796)"/><path d="m148.602 57.325c-1.997-17.525-15.731-27.727-16.315-28.152-3.346-2.442-8.039-1.707-10.479 1.641-2.44 3.347-1.706 8.038 1.641 10.479.09.065 9.01 6.851 10.25 17.732.923 8.094-2.595 16.8-10.453 25.874-2.712 3.131-2.372 7.868.759 10.579 3.13 2.712 7.868 2.372 10.579-.759 10.719-12.377 15.435-24.958 14.018-37.394z" fill="#954c35"/><path d="m458.156 472.92c-6.352-15.514-21.272-43.003-47.726-44.774-.593-.04-1.062-.515-1.073-1.109s.439-1.087 1.03-1.15c26.367-2.785 40.221-30.825 45.974-46.572 1.637-4.482-2.531-8.921-7.117-7.606l-117.409 34.042 4.198 47.314 115.304 27.729c4.632 1.138 8.627-3.458 6.819-7.874z" fill="#c0694e"/><path d="m35.023 425.164c34.738-27.531 144.687-90.808 344.78.155 3.444 1.565 3.546 6.429.169 8.134-40.596 20.492-223.43 103.982-344.817 12.82-7.61-5.715-7.614-15.179-.132-21.109z" fill="#d29380"/><path d="m379.975 433.454c-40.6 20.49-223.43 103.98-344.82 12.82-7.61-5.72-7.61-15.18-.13-21.11 3.42-2.71 7.58-5.77 12.48-9 98.4 62.66 230.52 22.45 297.63-5.45 11.24 4.35 22.8 9.2 34.67 14.6 3.44 1.57 3.54 6.43.17 8.14z" fill="#c97e67"/><ellipse cx="93.06" cy="430.041" fill="#954c35" rx="12.844" ry="12.844" transform="matrix(1 -.019 .019 1 -8.233 1.864)"/><path d="m148.602 428.799c-1.997-17.525-15.731-27.727-16.315-28.152-3.346-2.442-8.039-1.707-10.479 1.641-2.44 3.347-1.706 8.038 1.641 10.479.09.065 9.01 6.851 10.25 17.732.923 8.094-2.595 16.8-10.453 25.874-2.712 3.131-2.372 7.868.759 10.579 3.13 2.712 7.868 2.372 10.579-.759 10.719-12.377 15.435-24.958 14.018-37.394z" fill="#954c35"/><path d="m29.874 287.038c6.352-15.514 21.272-43.003 47.726-44.774.593-.04 1.062-.515 1.073-1.109s-.439-1.087-1.03-1.15c-26.367-2.785-40.221-30.825-45.974-46.572-1.637-4.482 2.531-8.921 7.117-7.606l117.409 34.042-4.198 47.314-115.303 27.729c-4.634 1.138-8.628-3.458-6.82-7.874z" fill="#c0694e"/><path d="m453.007 239.282c-34.738-27.531-144.687-90.808-344.78.155-3.444 1.565-3.546 6.429-.169 8.134 40.596 20.492 223.43 103.982 344.817 12.82 7.609-5.715 7.614-15.179.132-21.109z" fill="#d29380"/><path d="m108.055 247.572c40.6 20.49 223.43 103.98 344.82 12.82 7.61-5.72 7.61-15.18.13-21.11-3.42-2.71-7.58-5.77-12.48-9-98.4 62.66-230.52 22.45-297.63-5.45-11.24 4.35-22.8 9.2-34.67 14.6-3.44 1.57-3.54 6.43-.17 8.14z" fill="#c97e67"/><g fill="#954c35"><ellipse cx="394.969" cy="244.159" rx="12.844" ry="12.844" transform="matrix(.019 -1 1 .019 143.278 634.372)"/><path d="m339.428 242.917c1.997-17.525 15.731-27.727 16.315-28.152 3.346-2.442 8.039-1.707 10.479 1.641 2.44 3.347 1.706 8.038-1.641 10.479-.09.065-9.01 6.851-10.25 17.732-.923 8.094 2.595 16.8 10.453 25.874 2.712 3.131 2.372 7.868-.759 10.579-3.13 2.712-7.868 2.372-10.579-.759-10.719-12.377-15.435-24.958-14.018-37.394z"/></g></svg>