<?xml version="1.0" encoding="iso-8859-1"?>
<!-- Generator: Adobe Illustrator 19.0.0, SVG Export Plug-In . SVG Version: 6.00 Build 0)  -->
<svg version="1.1" id="Capa_1" xmlns="http://www.w3.org/2000/svg" xmlns:xlink="http://www.w3.org/1999/xlink" x="0px" y="0px"
	 viewBox="0 0 512 512" style="enable-background:new 0 0 512 512;" xml:space="preserve">
<path style="fill:#FF3501;" d="M348.599,13.54c-0.028,0.146-28.749,149.006-28.772,149.125
	c-4.146,21.493-26.579,34.088-47.049,26.558l-0.094-0.042l-0.042-0.01c-2.63-1.472-15.971-3.663-23.968-17.994
	c-0.01-0.01-0.01-0.021-0.01-0.031c-12.096-21.609,3.41-39.381,4.01-41.221c71.955-119.178-67.187,111.199,71.424-118.295
	c2.628-3.27,4.642-11.603,12.94-11.603v0.01c1.389-0.021,2.778,0.198,4.094,0.648C346.009,2.365,349.821,7.17,348.599,13.54z"/>
<path style="fill:#FF5023;" d="M324.098,11.629l-9.441,48.96l-16.397,84.99c-4.157,21.503-26.59,34.099-47.059,26.558l-0.094-0.031
	l-0.042-0.021l-2.402-0.94c-0.491-0.877-0.94-1.775-1.358-2.694c-4.585-10.172-4.376-22.423,1.963-32.908l3.405-5.619l8.156-13.545
	l33.179-54.934L324.098,11.629z"/>
<path style="fill:#4E901E;" d="M265.175,189.735l-28.271,24.219c-3.916,3.363-9.88,2.903-13.253-1.023l-28.657-33.451
	c-35.75-42.704-39.004-43.068-39.435-48.793c1.537-5.104,3.199-4.166,34.882-32.041c1.285-1.097,2.757-1.828,4.292-2.204
	c5.965,0.979,5.769,4.475,32.323,34.36l39.143,45.681C269.561,180.409,269.102,186.372,265.175,189.735z"/>
<path style="fill:#47821C;" d="M200.299,99.575c-1.483-1.734-3.467-2.788-5.566-3.133c-1.535,0.376-3.008,1.107-4.292,2.204
	l-31.686,27.153c-1.567,1.337-2.642,3.05-3.196,4.888c0.104,1.389,0.543,2.778,1.285,4.021c0.209,0.376,0.46,0.731,0.731,1.076
	l37.42,43.696l5.587,6.506c3.227-10.005,3.426-20.96,0.178-31.362l1.097-0.554c3.436-1.963,6.673-4.157,9.681-6.559
	c6.099-4.825,11.29-10.485,15.519-16.71L200.299,99.575z"/>
<path style="fill:#85BB04;" d="M249.102,125.726c-22.381,12.765-50.636,4.739-63.184-17.284
	c-21.294-37.338,15.881-81.835,56.751-66.202C278.75,55.94,283.303,106.206,249.102,125.726z"/>
<g>
	<path style="fill:#79AB03;" d="M226.356,131.815c-16.212,0.053-31.922-8.426-40.438-23.373
		c-21.294-37.338,15.881-81.835,56.751-66.202C252.956,73.173,246.439,107.021,226.356,131.815z"/>
	<path style="fill:#79AB03;" d="M164.174,192.774c0,0,0,0.01-0.01,0.01c-0.4,0.266-1.906,1.074-2.82,1.525
		c-21.806,10.809-48.521,2.841-60.74-18.579c-15.787-27.681,0.515-62.715,31.832-68.489c0.01,0,0.01,0,0.021-0.01
		c18.802-3.467,38.591,5.046,48.605,22.611C193.667,151.929,186.095,180.002,164.174,192.774z"/>
</g>
<path style="fill:#91CC04;" d="M164.174,192.774c0,0,0,0.01-0.01,0.01c-0.125,0.084-0.261,0.157-0.386,0.23
	c-0.804,0.46-1.608,0.888-2.433,1.295c-14.621-1.285-28.375-9.493-36.208-23.206c-12.585-22.078-5.023-50.14,16.866-62.923
	c0.01,0,0.01,0,0.021-0.01c2.674-0.491,5.368-0.741,8.042-0.762c12.626,2.569,24.114,10.36,30.997,22.433
	C193.667,151.929,186.095,180.002,164.174,192.774z"/>
<path style="fill:#85BB04;" d="M178.774,142.122c-31.216,13.232-68.103,1.295-85.314-28.898c-19.536-34.23-5.24-76.689,26.078-92.99
	c32.281-17.905,73.331-6.698,91.821,25.744C231.599,81.469,216.023,126.545,178.774,142.122z"/>
<path style="fill:#91CC04;" d="M178.774,142.122c-23.947,0.407-47.372-11.937-60.082-34.224
	c-16.825-29.482-9.107-66.265,16.679-86.724c9.19-5.097,19.07-7.833,28.929-8.386c19.143,3.405,36.678,14.976,47.059,33.19
	C231.733,81.704,215.762,126.653,178.774,142.122z"/>
<path style="fill:#4E901E;" d="M340.729,30.265l30.775-14.616c4.265-2.031,9.422-0.196,11.461,4.08l17.295,36.414
	c20.894,45.847,24.173,47.154,23.137,52.548c-0.929,1.49-2.29,2.746-3.994,3.551c-35.571,16.508-34.783,17.406-38.814,17.306
	c-5.03-2.292-3.986-5.262-20.314-38.095l-23.625-49.73C334.62,37.451,336.456,32.294,340.729,30.265z"/>
<path style="fill:#47821C;" d="M380.588,129.549c1.446,0.036,2.922-0.257,4.319-0.917c34.681-17.036,35.909-15.802,38.489-19.94
	c1.05-5.461-2.301-6.828-23.137-52.548l-3.375-7.086c-5.248,8.064-8.049,17.693-7.674,27.658
	c-0.104,0.039-14.88,2.681-28.936,14.738C376.932,124.954,375.61,127.281,380.588,129.549z"/>
<path style="fill:#85BB04;" d="M361.134,90.727c42.186,11.298,41.49,71.176-0.293,81.992c-22.53,5.869-45.784-7.691-51.658-30.398
	C300.987,110.677,330.179,82.417,361.134,90.727z"/>
<g>
	<path style="fill:#79AB03;" d="M361.134,90.727c14.436,3.866,26.201,15.193,30.114,30.337
		c9.981,38.557-34.066,68.165-65.992,44.871C323.585,136.147,337.453,107.812,361.134,90.727z"/>
	<path style="fill:#79AB03;" d="M430.667,51.788c0,0,0.002-0.009,0.011-0.007c18.744-6.265,45.522,5.084,52.052,30.297
		c5.865,22.656-7.749,45.782-30.408,51.655c-8.606,2.239-13.856,1.046-14.145,1.213c-17.438-1.444-32.877-13.706-37.51-31.62
		C394.827,80.796,408.243,57.816,430.667,51.788z"/>
</g>
<path style="fill:#91CC04;" d="M430.667,51.788c0,0,0.002-0.009,0.011-0.007c0.131-0.044,0.268-0.075,0.396-0.11
	c0.821-0.213,1.633-0.399,2.46-0.561c12.607,4.639,22.787,15.186,26.419,29.175c5.823,22.517-7.581,45.49-29.978,51.534
	c-0.009-0.002-0.009-0.002-0.021,0.004c-2.479-0.207-4.919-0.632-7.285-1.254c-10.537-5.296-18.816-14.93-22.002-27.243
	C394.827,80.796,408.243,57.816,430.667,51.788z"/>
<path style="fill:#85BB04;" d="M405.631,93.027c30.743-4.206,60.462,15.179,68.428,45.972
	c13.247,51.099-39.521,94.048-86.642,71.732c-16.093-7.596-28.807-22.018-33.61-40.594
	C344.436,133.937,368.999,97.858,405.631,93.027z"/>
<path style="fill:#91CC04;" d="M405.631,93.027c21.249,5.38,38.981,21.897,44.865,44.629c7.794,30.072-7.839,60.711-35.518,72.601
	c-9.339,2.299-18.721,2.348-27.562,0.473c-16.093-7.596-28.807-22.018-33.61-40.594C344.436,133.937,368.999,97.858,405.631,93.027z
	"/>
<path style="fill:#85BB04;" d="M48.72,70.855c-0.691,0.384-16.614,9.25-16.188,9.013C3.737,31.662,3.561,33.786,3.561,30.062
	c0-2.956,1.786-5.796,4.804-6.924l20.658-7.718c2.872-1.076,5.932-0.251,7.885,1.775c2.302,2.303,1.998,5.107,2.903,8.574
	C51.746,86.172,47.957,66.998,48.72,70.855z"/>
<path style="fill:#91CC04;" d="M48.72,70.855l-2.454,1.368C28.776,42.664,27.759,43.295,27.759,39.639
	c0-2.956,1.786-5.796,4.804-6.924l8.031-2.997L48.72,70.855z"/>
<path style="fill:#FF3501;" d="M115.538,248.303c0.104,3.446-1.305,6.308-3.478,8.313h-0.01c-0.052,0.052-0.104,0.094-0.167,0.136
	c-0.982,0.888-2.099,1.587-3.321,2.089c-4.773,1.974-10.809,0.909-14.12-4.679L61.2,197.944l-44.051-74.505
	c-11.143-18.851-2.694-43.153,17.629-51.08c6.406-2.359,7.433-2.737,7.29-2.684c20.006-6.605,41.962,5.828,45.889,27.3
	c3.295,17.95,3.352,18.242,15.613,85.137l11.77,64.239C115.465,247.018,115.528,247.676,115.538,248.303z"/>
<path style="fill:#FF5023;" d="M115.538,248.303l-24.574-41.566l-44.051-74.505c-11.143-18.851-2.694-43.153,17.629-51.08
	c6.406-2.359,7.433-2.737,7.29-2.684c3.309-1.083,3.912-1.022,5.525-0.971c11.02,10.327,10.716,22.491,11.78,25.942
	c17.394,94.813,13.981,76.205,14.433,78.672l11.77,64.239C115.465,247.018,115.528,247.676,115.538,248.303z"/>
<path style="fill:#CD2A00;" d="M91.998,118.99l-23.456,9.117c-0.929,0.366-1.89,0.533-2.841,0.533c-3.133,0-6.099-1.901-7.3-4.992
	c-1.567-4.042,0.428-8.574,4.47-10.141c25.978-10.048,24.843-9.79,26.266-10.068L91.998,118.99z"/>
<path style="fill:#CC7400;" d="M490.183,211.343V489.51c0,12.355-10.109,22.464-22.454,22.464H44.271
	c-12.355,0-22.464-10.109-22.464-22.464V211.343c0-3.718,2.193-6.955,5.347-8.47c1.232-0.595,2.6-0.929,4.052-0.929h449.578
	C485.954,201.944,490.183,206.173,490.183,211.343z"/>
<path style="fill:#AB2300;" d="M359.293,166.832c0,29.858-20.94,54.84-48.939,61.043c-0.574,0.125-1.149,0.24-1.734,0.355
	c-0.982,0.188-1.974,0.355-2.976,0.501c-2.903,0.418-5.859,0.627-8.877,0.627c-34.527,0-62.526-27.989-62.526-62.526
	c0-34.527,27.999-62.526,62.526-62.526c0.345,0,0.679,0,1.023,0.021c1.065,0.01,2.12,0.052,3.164,0.125
	c1.577,0.094,3.144,0.261,4.689,0.48C335.972,109.246,359.293,135.324,359.293,166.832z"/>
<path style="fill:#CD2A00;" d="M359.293,166.832c0,29.858-20.94,54.84-48.939,61.043c-29.012-6.371-50.704-32.219-50.704-63.132
	c0-27.467,17.138-50.923,41.305-60.291c1.577,0.094,3.144,0.261,4.689,0.48C335.972,109.246,359.293,135.324,359.293,166.832z"/>
<path style="fill:#AA6100;" d="M512,181.14v49.023c0,7.3-5.984,13.284-13.284,13.284H13.284C5.974,243.447,0,237.463,0,230.162
	V181.14c0-7.3,5.974-13.284,13.284-13.284h485.431C506.016,167.856,512,173.84,512,181.14z"/>
<path style="fill:#CC7400;" d="M512,181.14v49.023c0,7.3-5.984,13.284-13.284,13.284H47.613c-7.311,0-13.284-5.984-13.284-13.284
	V181.14c0-7.3,5.974-13.284,13.284-13.284h451.103C506.016,167.856,512,173.84,512,181.14z"/>
<path id="SVGCleanerId_0" style="fill:#EE8700;" d="M490.183,243.447V489.51c0,12.355-10.109,22.464-22.454,22.464H80.521
	c-12.355,0-22.464-10.109-22.464-22.464V243.447H490.183z"/>
<g>
	<path id="SVGCleanerId_0_1_" style="fill:#EE8700;" d="M490.183,243.447V489.51c0,12.355-10.109,22.464-22.454,22.464H80.521
		c-12.355,0-22.464-10.109-22.464-22.464V243.447H490.183z"/>
</g>
<path style="fill:#FF9811;" d="M490.183,283.582V261.42l-61.544,61.544l-51.926-51.926l27.592-27.592h-22.161l-16.511,16.511
	l-16.511-16.511h-12.658l-16.511,16.511l-16.511-16.511h-22.161l27.592,27.592l-51.926,51.926l-51.926-51.926l27.592-27.592H210.45
	l-16.511,16.511l-16.511-16.511H164.77l-16.511,16.511l-16.511-16.511h-22.161l27.592,27.592l-51.926,51.926L21.806,259.52v22.161
	l52.364,52.364l-11.76,11.76c-8.339-8.339-32.673-32.673-40.605-40.605v22.161l29.524,29.524L21.806,386.41v22.161l40.605-40.605
	l11.76,11.76L21.806,432.09v22.161c7.89-7.89,55.431-55.431,63.445-63.445l51.926,51.926l-69.241,69.241h22.161l58.161-58.161
	l11.76,11.76l-46.401,46.401h22.161l35.32-35.32l35.32,35.32h22.161c-9.268-9.268-30.244-30.244-46.401-46.401l11.76-11.76l0,0
	c16.996,16.996,40.683,40.683,58.161,58.161h9.692c17.222-17.222,41.137-41.137,58.161-58.161l0,0l11.76,11.76l-38.495,38.495
	l-7.906,7.906h22.161l35.32-35.32l35.32,35.32h22.161l-46.401-46.401l11.76-11.76l58.161,58.161h22.161l-69.241-69.241
	l51.926-51.926c11.657,11.657,48.796,48.796,61.544,61.544V430.19l-50.464-50.464l11.76-11.76l38.704,38.704v-22.161l-27.623-27.623
	l27.623-27.623v-22.161c-18.123,18.123-21.474,21.474-38.704,38.704l-11.76-11.76C447.341,326.424,482.482,291.283,490.183,283.582z
	 M365.632,282.12l51.926,51.926l-11.76,11.76l-51.926-51.926L365.632,282.12z M394.718,356.886l-51.926,51.926l-51.926-51.926
	l51.926-51.926L394.718,356.886z M342.792,259.279l11.76,11.76l-11.76,11.76l-11.76-11.76L342.792,259.279z M319.952,282.12
	l11.76,11.76l-51.926,51.926l-11.76-11.76L319.952,282.12z M268.705,356.886l-11.76,11.76l0,0l-11.76-11.76l11.76-11.76
	L268.705,356.886z M245.864,334.045l-11.76,11.76l-34.219-34.219l-17.707-17.707l11.76-11.76L245.864,334.045z M223.024,356.886
	l-51.926,51.926l-51.926-51.926l51.926-51.926L223.024,356.886z M171.098,259.279l11.76,11.76l-11.76,11.76l-11.76-11.76
	L171.098,259.279z M148.258,282.12l11.76,11.76l-33.112,33.112l-18.814,18.814l-11.76-11.76L148.258,282.12z M73.492,356.886
	l11.76-11.76l0,0l11.76,11.76l-11.76,11.76L73.492,356.886z M96.332,379.726l11.76-11.76l51.926,51.926l-11.76,11.76L96.332,379.726
	z M171.098,454.492l-11.76-11.76l11.76-11.76l11.76,11.76L171.098,454.492z M193.939,431.652l-11.76-11.76l51.926-51.926
	l11.76,11.76L193.939,431.652z M256.945,494.658l-51.926-51.926l51.926-51.926l51.926,51.926L256.945,494.658z M268.026,379.726
	L268.026,379.726l11.76-11.76l51.926,51.926l-11.76,11.76L268.026,379.726z M342.792,454.492l-11.76-11.76l11.76-11.76l11.76,11.76
	L342.792,454.492z M365.632,431.652l-11.76-11.76l51.926-51.926l11.76,11.76L365.632,431.652z M440.398,356.886l-11.76,11.76
	l-11.76-11.76l11.76-11.76L440.398,356.886z"/>
<g>
	<path style="fill:#EE8700;" d="M21.806,305.2v22.161l29.524,29.524L21.806,386.41v22.161l36.25-36.25V341.45
		C47.571,330.965,28.636,312.03,21.806,305.2z"/>
	<path style="fill:#EE8700;" d="M21.806,454.252c4.386-4.386,20.981-20.981,36.25-36.25V395.84l-36.25,36.25
		C21.806,432.09,21.806,454.252,21.806,454.252z"/>
	<polygon style="fill:#EE8700;" points="21.806,259.52 21.806,281.681 58.056,317.931 58.056,295.769 	"/>
</g>
<g>
</g>
<g>
</g>
<g>
</g>
<g>
</g>
<g>
</g>
<g>
</g>
<g>
</g>
<g>
</g>
<g>
</g>
<g>
</g>
<g>
</g>
<g>
</g>
<g>
</g>
<g>
</g>
<g>
</g>
</svg>
